<svg width="198" height="24" viewBox="0 0 198 24" fill="none" xmlns="http://www.w3.org/2000/svg">
<path d="M192.893 8.44342C192.273 8.44342 191.702 8.33684 191.179 8.12368C190.656 7.90262 190.201 7.5987 189.814 7.21184C189.436 6.82498 189.142 6.37498 188.933 5.86184C188.724 5.3487 188.619 4.79605 188.619 4.20395C188.619 3.60395 188.724 3.05132 188.933 2.54605C189.142 2.0329 189.436 1.58684 189.814 1.20789C190.193 0.821051 190.639 0.524998 191.155 0.319737C191.678 0.106579 192.253 0 192.881 0C193.501 0 194.072 0.106579 194.595 0.319737C195.127 0.532895 195.581 0.828947 195.96 1.20789C196.338 1.58684 196.632 2.0329 196.841 2.54605C197.05 3.05921 197.155 3.61579 197.155 4.21579C197.155 4.80789 197.05 5.36054 196.841 5.87368C196.632 6.38683 196.338 6.83683 195.96 7.22368C195.581 7.61054 195.13 7.91053 194.607 8.12368C194.092 8.33684 193.521 8.44342 192.893 8.44342ZM192.99 6.57237C192.539 6.57237 192.129 6.46972 191.758 6.26447C191.388 6.05132 191.094 5.76711 190.877 5.41184C190.668 5.05658 190.563 4.65395 190.563 4.20395C190.563 3.76184 190.668 3.36316 190.877 3.00789C191.094 2.65263 191.388 2.37237 191.758 2.16711C192.136 1.96184 192.551 1.85921 193.002 1.85921C193.348 1.85921 193.674 1.92237 193.98 2.04868C194.285 2.175 194.551 2.36052 194.776 2.60526L194.137 3.24474C193.992 3.08684 193.823 2.96842 193.63 2.88947C193.445 2.81052 193.235 2.77105 193.002 2.77105C192.736 2.77105 192.495 2.83421 192.277 2.96053C192.06 3.07895 191.887 3.24868 191.758 3.46974C191.637 3.68289 191.577 3.92763 191.577 4.20395C191.577 4.48816 191.637 4.74077 191.758 4.96184C191.887 5.18291 192.06 5.35263 192.277 5.47105C192.495 5.58947 192.736 5.64868 193.002 5.64868C193.243 5.64868 193.46 5.60923 193.654 5.53026C193.847 5.44344 194.008 5.32502 194.137 5.175L194.776 5.81447C194.559 6.05923 194.294 6.2487 193.98 6.38289C193.674 6.50923 193.344 6.57237 192.99 6.57237ZM192.881 7.9579C193.621 7.9579 194.273 7.79211 194.837 7.46053C195.4 7.12895 195.839 6.67895 196.153 6.11053C196.475 5.54211 196.636 4.90656 196.636 4.20395C196.636 3.50921 196.475 2.88158 196.153 2.32105C195.839 1.75263 195.4 1.30263 194.837 0.971053C194.273 0.639474 193.621 0.473684 192.881 0.473684C192.141 0.473684 191.489 0.639474 190.925 0.971053C190.362 1.29474 189.923 1.74079 189.609 2.30921C189.295 2.86974 189.138 3.50132 189.138 4.20395C189.138 4.90656 189.295 5.54211 189.609 6.11053C189.931 6.67895 190.374 7.12895 190.937 7.46053C191.501 7.79211 192.148 7.9579 192.881 7.9579Z" fill="#010C12"/>
<path d="M7.45989 23.2794C5.93674 23.2794 4.64298 23.0094 3.57861 22.4694C2.51424 21.9294 1.55998 21.1374 0.71582 20.0934L2.86291 17.9874C3.3951 18.7434 4.02822 19.3374 4.76226 19.7694C5.49631 20.1834 6.43223 20.3904 7.57 20.3904C8.63437 20.3904 9.47853 20.1744 10.1025 19.7424C10.7448 19.3104 11.0659 18.7164 11.0659 17.9604C11.0659 17.3304 10.9007 16.8174 10.5704 16.4214C10.2401 16.0254 9.79967 15.7014 9.24914 15.4494C8.71695 15.1794 8.12054 14.9454 7.45989 14.7474C6.8176 14.5314 6.16613 14.2974 5.50549 14.0454C4.8632 13.7754 4.26678 13.4424 3.71624 13.0464C3.18406 12.6504 2.75281 12.1374 2.42248 11.5074C2.09216 10.8774 1.927 10.0764 1.927 9.10436C1.927 7.98836 2.20227 7.04336 2.75281 6.26936C3.32169 5.47736 4.08327 4.87436 5.03753 4.46036C5.9918 4.04636 7.05617 3.83936 8.23064 3.83936C9.49688 3.83936 10.6255 4.08236 11.6164 4.56836C12.6258 5.05436 13.4424 5.67536 14.0663 6.43136L11.9192 8.53736C11.3687 7.92536 10.7906 7.47536 10.1851 7.18736C9.59781 6.88136 8.91882 6.72836 8.14806 6.72836C7.1938 6.72836 6.4414 6.91736 5.89086 7.29536C5.35868 7.67336 5.09259 8.20436 5.09259 8.88836C5.09259 9.46436 5.25775 9.93236 5.58807 10.2924C5.91839 10.6344 6.34964 10.9314 6.88183 11.1834C7.43237 11.4174 8.02878 11.6424 8.67107 11.8584C9.33172 12.0744 9.98319 12.3174 10.6255 12.5874C11.2861 12.8574 11.8825 13.2084 12.4147 13.6404C12.9653 14.0544 13.4057 14.5944 13.736 15.2604C14.0663 15.9264 14.2315 16.7634 14.2315 17.7714C14.2315 19.4634 13.6167 20.8044 12.3872 21.7944C11.176 22.7844 9.53358 23.2794 7.45989 23.2794ZM19.0795 15.8814V13.1814H23.8967C24.5574 13.1814 25.1355 13.0554 25.6309 12.8034C26.1448 12.5334 26.5485 12.1644 26.8421 11.6964C27.1357 11.2104 27.2825 10.6434 27.2825 9.99536C27.2825 9.34735 27.1357 8.78936 26.8421 8.32136C26.5485 7.83536 26.1448 7.46636 25.6309 7.21436C25.1355 6.94436 24.5574 6.80936 23.8967 6.80936H19.0795V4.10936H24.0619C25.2731 4.10936 26.3558 4.35236 27.3101 4.83836C28.2827 5.32436 29.0443 6.00836 29.5948 6.89036C30.1637 7.77236 30.4481 8.80735 30.4481 9.99536C30.4481 11.1834 30.1637 12.2184 29.5948 13.1004C29.0443 13.9824 28.2827 14.6664 27.3101 15.1524C26.3558 15.6384 25.2731 15.8814 24.0619 15.8814H19.0795ZM16.9049 23.0094V4.10936H20.0705V23.0094H16.9049ZM41.8985 23.2794C40.5221 23.2794 39.2375 23.0274 38.0447 22.5234C36.8519 22.0194 35.8059 21.3264 34.9067 20.4444C34.0074 19.5444 33.3009 18.5094 32.7871 17.3394C32.2916 16.1514 32.0439 14.8824 32.0439 13.5324C32.0439 12.1824 32.2916 10.9224 32.7871 9.75236C33.3009 8.58236 33.9983 7.55636 34.8791 6.67436C35.7783 5.77436 36.8152 5.08136 37.9897 4.59536C39.1825 4.09136 40.4671 3.83936 41.8434 3.83936C43.2198 3.83936 44.4952 4.09136 45.6696 4.59536C46.8625 5.08136 47.9085 5.77436 48.8076 6.67436C49.7068 7.55636 50.4042 8.59136 50.8996 9.77936C51.4135 10.9494 51.6704 12.2094 51.6704 13.5594C51.6704 14.9094 51.4135 16.1784 50.8996 17.3664C50.4042 18.5364 49.7068 19.5624 48.8076 20.4444C47.9268 21.3264 46.89 22.0194 45.6972 22.5234C44.5227 23.0274 43.2565 23.2794 41.8985 23.2794ZM41.8434 20.3094C43.1464 20.3094 44.2841 20.0214 45.2567 19.4454C46.2477 18.8694 47.0185 18.0774 47.569 17.0694C48.1379 16.0434 48.4222 14.8644 48.4222 13.5324C48.4222 12.5424 48.2572 11.6424 47.9268 10.8324C47.6149 10.0044 47.1653 9.29336 46.578 8.69936C45.9908 8.08736 45.2934 7.61936 44.486 7.29536C43.6969 6.97136 42.816 6.80936 41.8434 6.80936C40.5588 6.80936 39.4211 7.09736 38.4301 7.67336C37.4575 8.23136 36.6867 9.01436 36.1178 10.0224C35.5673 11.0304 35.292 12.2004 35.292 13.5324C35.292 14.5224 35.448 15.4404 35.76 16.2864C36.0903 17.1144 36.5399 17.8254 37.1088 18.4194C37.696 19.0134 38.3934 19.4814 39.2008 19.8234C40.0083 20.1474 40.8892 20.3094 41.8434 20.3094ZM56.5813 14.9904V12.4254H61.4535C62.4261 12.4254 63.1785 12.1824 63.7107 11.6964C64.2613 11.1924 64.5365 10.4994 64.5365 9.61736C64.5365 8.82536 64.2704 8.15936 63.7383 7.61936C63.2061 7.07936 62.4537 6.80936 61.4811 6.80936H56.5813V4.10936H61.6187C62.8299 4.10936 63.8942 4.35236 64.8118 4.83836C65.7294 5.30636 66.4359 5.95436 66.9314 6.78236C67.4452 7.59236 67.7021 8.51936 67.7021 9.56336C67.7021 10.6614 67.4452 11.6154 66.9314 12.4254C66.4359 13.2354 65.7294 13.8654 64.8118 14.3154C63.8942 14.7654 62.8299 14.9904 61.6187 14.9904H56.5813ZM54.4067 23.0094V4.10936H57.5722V23.0094H54.4067ZM64.977 23.0094L58.2329 14.8014L61.1783 13.7484L68.9684 23.0094H64.977ZM74.7364 23.0094V4.64936H77.902V23.0094H74.7364ZM68.4603 6.94436V4.10936H84.1781V6.94436H68.4603ZM86.4518 23.0094V4.10936H89.6173V23.0094H86.4518ZM93.3074 23.0094V4.10936H96.473V23.0094H93.3074ZM95.482 14.9094V12.0744H105.282V14.9094H95.482ZM95.482 6.94436V4.10936H105.75V6.94436H95.482ZM114.444 15.4494L106.929 4.10936H110.59L116.454 13.1544H114.747L120.61 4.10936H124.216L116.646 15.4494H114.444ZM114.004 23.0094V13.5054H117.169V23.0094H114.004ZM132.575 15.7194V13.5054H137.778C138.493 13.5054 139.127 13.3614 139.677 13.0734C140.246 12.7854 140.686 12.3804 140.998 11.8584C141.329 11.3364 141.494 10.7154 141.494 9.99536C141.494 9.27536 141.329 8.65436 140.998 8.13236C140.686 7.61036 140.246 7.20536 139.677 6.91736C139.127 6.62936 138.493 6.48536 137.778 6.48536H132.575V4.27136H137.943C139.117 4.27136 140.163 4.50536 141.081 4.97336C142.017 5.44136 142.751 6.10736 143.283 6.97136C143.834 7.81736 144.109 8.82536 144.109 9.99536C144.109 11.1474 143.834 12.1554 143.283 13.0194C142.751 13.8654 142.017 14.5314 141.081 15.0174C140.163 15.4854 139.117 15.7194 137.943 15.7194H132.575ZM130.841 23.0094V4.27136H133.428V23.0094H130.841ZM148.571 14.8554V12.7224H153.746C154.865 12.7224 155.728 12.4434 156.333 11.8854C156.939 11.3274 157.242 10.5714 157.242 9.61736C157.242 8.71736 156.939 7.97036 156.333 7.37636C155.746 6.78236 154.893 6.48536 153.773 6.48536H148.571V4.27136H153.856C155.067 4.27136 156.122 4.50536 157.021 4.97336C157.921 5.42336 158.609 6.04436 159.086 6.83636C159.581 7.62836 159.829 8.53736 159.829 9.56336C159.829 10.6254 159.581 11.5524 159.086 12.3444C158.609 13.1364 157.921 13.7574 157.021 14.2074C156.122 14.6394 155.067 14.8554 153.856 14.8554H148.571ZM146.836 23.0094V4.27136H149.424V23.0094H146.836ZM157.847 23.0094L150.91 14.6124L153.36 13.7754L161.123 23.0094H157.847ZM171.719 23.2794C170.361 23.2794 169.095 23.0364 167.92 22.5504C166.746 22.0464 165.718 21.3534 164.837 20.4714C163.956 19.5714 163.268 18.5364 162.773 17.3664C162.295 16.1964 162.057 14.9454 162.057 13.6134C162.057 12.2634 162.295 11.0124 162.773 9.86036C163.268 8.69036 163.947 7.66436 164.81 6.78236C165.69 5.90036 166.709 5.21636 167.865 4.73036C169.04 4.24436 170.306 4.00136 171.664 4.00136C173.022 4.00136 174.279 4.24436 175.435 4.73036C176.609 5.21636 177.637 5.90036 178.518 6.78236C179.399 7.66436 180.087 8.69036 180.582 9.86036C181.078 11.0304 181.326 12.2904 181.326 13.6404C181.326 14.9724 181.078 16.2234 180.582 17.3934C180.087 18.5634 179.399 19.5894 178.518 20.4714C177.655 21.3534 176.637 22.0464 175.462 22.5504C174.306 23.0364 173.058 23.2794 171.719 23.2794ZM171.664 20.8494C173.04 20.8494 174.242 20.5434 175.27 19.9314C176.316 19.3014 177.142 18.4464 177.747 17.3664C178.353 16.2684 178.656 15.0174 178.656 13.6134C178.656 12.5694 178.481 11.6154 178.133 10.7514C177.784 9.86936 177.298 9.10436 176.674 8.45636C176.05 7.80836 175.316 7.31336 174.471 6.97136C173.627 6.61136 172.691 6.43136 171.664 6.43136C170.306 6.43136 169.104 6.73736 168.058 7.34936C167.03 7.96136 166.213 8.80736 165.608 9.88736C165.021 10.9674 164.727 12.2094 164.727 13.6134C164.727 14.6574 164.892 15.6294 165.222 16.5294C165.571 17.4114 166.048 18.1764 166.654 18.8244C167.278 19.4544 168.012 19.9494 168.856 20.3094C169.718 20.6694 170.654 20.8494 171.664 20.8494Z" fill="#010C12"/>
</svg>
