<svg width="206" height="27" viewBox="0 0 206 27" fill="none" xmlns="http://www.w3.org/2000/svg">
<path d="M200.641 9.15499C200.007 9.15499 199.422 9.04964 198.887 8.83893C198.352 8.62041 197.887 8.31999 197.492 7.93758C197.105 7.55517 196.804 7.11034 196.59 6.60311C196.376 6.09587 196.269 5.54957 196.269 4.96428C196.269 4.37118 196.376 3.82491 196.59 3.32545C196.804 2.8182 197.105 2.37728 197.492 2.00269C197.878 1.62029 198.335 1.32765 198.862 1.12474C199.397 0.914038 199.986 0.808685 200.628 0.808685C201.262 0.808685 201.847 0.914038 202.382 1.12474C202.925 1.33545 203.391 1.6281 203.778 2.00269C204.164 2.37728 204.465 2.8182 204.679 3.32545C204.893 3.83271 205 4.38288 205 4.97599C205 5.56128 204.893 6.10757 204.679 6.61481C204.465 7.12205 204.164 7.56687 203.778 7.94928C203.391 8.33169 202.929 8.62823 202.394 8.83893C201.867 9.04964 201.283 9.15499 200.641 9.15499ZM200.74 7.30546C200.279 7.30546 199.859 7.20399 199.48 7.00111C199.101 6.7904 198.801 6.50946 198.578 6.15828C198.365 5.8071 198.257 5.4091 198.257 4.96428C198.257 4.52726 198.365 4.13316 198.578 3.78198C198.801 3.43081 199.101 3.15377 199.48 2.95086C199.867 2.74796 200.291 2.64651 200.752 2.64651C201.106 2.64651 201.44 2.70894 201.752 2.83381C202.065 2.95867 202.337 3.14206 202.567 3.38398L201.913 4.0161C201.765 3.86002 201.592 3.74297 201.394 3.66492C201.205 3.58688 200.991 3.54787 200.752 3.54787C200.48 3.54787 200.233 3.6103 200.011 3.73516C199.789 3.85222 199.612 4.02 199.48 4.23851C199.356 4.44922 199.295 4.69114 199.295 4.96428C199.295 5.24522 199.356 5.49493 199.48 5.71346C199.612 5.93198 199.789 6.09975 200.011 6.21681C200.233 6.33387 200.48 6.3924 200.752 6.3924C200.999 6.3924 201.221 6.35339 201.419 6.27534C201.616 6.18951 201.781 6.07245 201.913 5.92416L202.567 6.55628C202.345 6.79822 202.073 6.98551 201.752 7.11816C201.44 7.24304 201.102 7.30546 200.74 7.30546ZM200.628 8.67505C201.386 8.67505 202.053 8.51117 202.629 8.1834C203.206 7.85564 203.654 7.41081 203.975 6.84893C204.305 6.28705 204.469 5.65881 204.469 4.96428C204.469 4.27753 204.305 3.65712 203.975 3.10304C203.654 2.54116 203.206 2.09633 202.629 1.76857C202.053 1.4408 201.386 1.27692 200.628 1.27692C199.871 1.27692 199.204 1.4408 198.628 1.76857C198.051 2.08853 197.603 2.52945 197.282 3.09134C196.961 3.64541 196.8 4.26973 196.8 4.96428C196.8 5.65881 196.961 6.28705 197.282 6.84893C197.611 7.41081 198.064 7.85564 198.64 8.1834C199.217 8.51117 199.879 8.67505 200.628 8.67505Z" fill="white"/>
<path d="M10.9615 23.8203C9.40346 23.8203 8.08007 23.5534 6.99133 23.0196C5.90259 22.4858 4.92647 21.7029 4.06299 20.6709L6.25924 18.5892C6.80362 19.3365 7.45123 19.9236 8.20209 20.3507C8.95294 20.7599 9.91028 20.9645 11.0741 20.9645C12.1629 20.9645 13.0263 20.751 13.6646 20.324C14.3216 19.8969 14.6501 19.3098 14.6501 18.5625C14.6501 17.9397 14.4811 17.4326 14.1432 17.0412C13.8054 16.6497 13.3548 16.3294 12.7917 16.0803C12.2473 15.8135 11.6373 15.5821 10.9615 15.3864C10.3045 15.1729 9.6381 14.9416 8.96233 14.6925C8.30533 14.4256 7.69526 14.0964 7.13211 13.705C6.58774 13.3135 6.14662 12.8064 5.80873 12.1837C5.47084 11.5609 5.3019 10.7691 5.3019 9.80832C5.3019 8.70516 5.58347 7.77103 6.14662 7.00593C6.72853 6.22304 7.50754 5.62698 8.48366 5.21774C9.45977 4.8085 10.5485 4.60388 11.7499 4.60388C13.0451 4.60388 14.1996 4.84409 15.2132 5.3245C16.2456 5.80491 17.081 6.41876 17.7192 7.16607L15.5229 9.24785C14.9598 8.64288 14.3685 8.19806 13.749 7.91337C13.1484 7.61089 12.4538 7.45965 11.6654 7.45965C10.6893 7.45965 9.91967 7.64648 9.35653 8.02013C8.81216 8.39378 8.53997 8.91868 8.53997 9.59481C8.53997 10.1642 8.70891 10.6268 9.0468 10.9827C9.38468 11.3207 9.82581 11.6143 10.3702 11.8634C10.9333 12.0947 11.5434 12.3171 12.2004 12.5306C12.8762 12.7442 13.5426 12.9844 14.1996 13.2513C14.8753 13.5182 15.4854 13.8651 16.0298 14.2922C16.5929 14.7014 17.0434 15.2352 17.3813 15.8935C17.7192 16.5519 17.8881 17.3792 17.8881 18.3756C17.8881 20.0482 17.2593 21.3738 16.0016 22.3524C14.7627 23.331 13.0827 23.8203 10.9615 23.8203ZM22.8472 16.5074V13.8384H27.7747C28.4505 13.8384 29.0418 13.7139 29.5486 13.4648C30.0742 13.1979 30.4872 12.8331 30.7875 12.3705C31.0879 11.8901 31.238 11.3296 31.238 10.6891C31.238 10.0485 31.0879 9.49695 30.7875 9.03433C30.4872 8.55392 30.0742 8.18916 29.5486 7.94006C29.0418 7.67317 28.4505 7.53972 27.7747 7.53972H22.8472V4.87078H27.9436C29.1826 4.87078 30.2901 5.11098 31.2662 5.59139C32.2611 6.0718 33.0401 6.74793 33.6032 7.61979C34.1851 8.49164 34.4761 9.51474 34.4761 10.6891C34.4761 11.8634 34.1851 12.8865 33.6032 13.7584C33.0401 14.6302 32.2611 15.3063 31.2662 15.7868C30.2901 16.2672 29.1826 16.5074 27.9436 16.5074H22.8472ZM20.6228 23.5534V4.87078H23.8609V23.5534H20.6228ZM46.1886 23.8203C44.7808 23.8203 43.4668 23.5712 42.2466 23.073C41.0265 22.5748 39.9565 21.8897 39.0367 21.0179C38.1169 20.1282 37.3942 19.1051 36.8686 17.9486C36.3618 16.7743 36.1084 15.5199 36.1084 14.1854C36.1084 12.8509 36.3618 11.6054 36.8686 10.4489C37.3942 9.29233 38.1075 8.27813 39.0085 7.40627C39.9283 6.51663 40.9889 5.8316 42.1903 5.35119C43.4104 4.85298 44.7244 4.60388 46.1323 4.60388C47.5402 4.60388 48.8448 4.85298 50.0461 5.35119C51.2663 5.8316 52.3363 6.51663 53.256 7.40627C54.1758 8.27813 54.8891 9.30122 55.3959 10.4756C55.9215 11.6321 56.1843 12.8776 56.1843 14.2121C56.1843 15.5466 55.9215 16.801 55.3959 17.9753C54.8891 19.1318 54.1758 20.146 53.256 21.0179C52.355 21.8897 51.2944 22.5748 50.0743 23.073C48.8729 23.5712 47.5777 23.8203 46.1886 23.8203ZM46.1323 20.8844C47.4651 20.8844 48.6289 20.5998 49.6238 20.0304C50.6374 19.461 51.4258 18.6781 51.989 17.6817C52.5709 16.6675 52.8618 15.5021 52.8618 14.1854C52.8618 13.2068 52.6929 12.3171 52.355 11.5164C52.0359 10.698 51.576 9.99515 50.9753 9.40798C50.3746 8.80302 49.6613 8.3404 48.8354 8.02013C48.0282 7.69986 47.1272 7.53972 46.1323 7.53972C44.8183 7.53972 43.6545 7.82441 42.6408 8.39378C41.6459 8.94537 40.8575 9.71936 40.2756 10.7158C39.7125 11.7122 39.4309 12.8687 39.4309 14.1854C39.4309 15.164 39.5905 16.0714 39.9096 16.9077C40.2475 17.7262 40.7074 18.429 41.2893 19.0162C41.89 19.6034 42.6033 20.066 43.4292 20.404C44.2552 20.7243 45.1562 20.8844 46.1323 20.8844ZM61.2076 15.6266V13.0911H66.1914C67.1863 13.0911 67.9559 12.8509 68.5003 12.3705C69.0635 11.8723 69.345 11.1873 69.345 10.3154C69.345 9.53253 69.0729 8.87419 68.5285 8.3404C67.9841 7.80662 67.2145 7.53972 66.2196 7.53972H61.2076V4.87078H66.3604C67.5993 4.87078 68.688 5.11098 69.6266 5.59139C70.5652 6.05401 71.2879 6.69456 71.7947 7.51303C72.3203 8.31372 72.5831 9.23005 72.5831 10.262C72.5831 11.3474 72.3203 12.2904 71.7947 13.0911C71.2879 13.8918 70.5652 14.5146 69.6266 14.9594C68.688 15.4042 67.5993 15.6266 66.3604 15.6266H61.2076ZM58.9832 23.5534V4.87078H62.2213V23.5534H58.9832ZM69.7956 23.5534L62.8971 15.4398L65.9099 14.3989L73.8783 23.5534H69.7956ZM79.7785 23.5534V5.40457H83.0166V23.5534H79.7785ZM73.3587 7.67317V4.87078H89.4364V7.67317H73.3587ZM91.7621 23.5534V4.87078H95.0001V23.5534H91.7621ZM98.7747 23.5534V4.87078H102.013V23.5534H98.7747ZM100.999 15.5466V12.7442H111.023V15.5466H100.999ZM100.999 7.67317V4.87078H111.502V7.67317H100.999ZM120.395 16.0803L112.708 4.87078H116.453L122.451 13.8117H120.705L126.703 4.87078H130.391L122.648 16.0803H120.395ZM119.945 23.5534V14.1587H123.183V23.5534H119.945ZM138.942 16.3472V14.1587H144.263C144.995 14.1587 145.643 14.0164 146.206 13.7317C146.788 13.447 147.239 13.0466 147.558 12.5306C147.896 12.0147 148.064 11.4008 148.064 10.6891C148.064 9.97736 147.896 9.3635 147.558 8.8475C147.239 8.33151 146.788 7.93117 146.206 7.64648C145.643 7.36179 144.995 7.21945 144.263 7.21945H138.942V5.03091H144.432C145.634 5.03091 146.704 5.26222 147.642 5.72484C148.599 6.18746 149.35 6.8458 149.895 7.69986C150.458 8.53613 150.739 9.53253 150.739 10.6891C150.739 11.8278 150.458 12.8242 149.895 13.6783C149.35 14.5146 148.599 15.1729 147.642 15.6533C146.704 16.1159 145.634 16.3472 144.432 16.3472H138.942ZM137.168 23.5534V5.03091H139.814V23.5534H137.168ZM155.303 15.4932V13.3847H160.597C161.742 13.3847 162.624 13.1089 163.244 12.5573C163.863 12.0058 164.173 11.2585 164.173 10.3154C164.173 9.42578 163.863 8.68737 163.244 8.1002C162.643 7.51303 161.77 7.21945 160.625 7.21945H155.303V5.03091H160.709C161.948 5.03091 163.028 5.26222 163.948 5.72484C164.867 6.16966 165.571 6.78352 166.059 7.56641C166.566 8.3493 166.82 9.24785 166.82 10.262C166.82 11.3118 166.566 12.2282 166.059 13.0111C165.571 13.7939 164.867 14.4078 163.948 14.8526C163.028 15.2797 161.948 15.4932 160.709 15.4932H155.303ZM153.529 23.5534V5.03091H156.176V23.5534H153.529ZM164.792 23.5534L157.697 15.253L160.203 14.4256L168.143 23.5534H164.792ZM178.981 23.8203C177.592 23.8203 176.297 23.5801 175.096 23.0997C173.894 22.6015 172.843 21.9164 171.942 21.0446C171.041 20.1549 170.337 19.1318 169.83 17.9753C169.342 16.8188 169.098 15.5821 169.098 14.2655C169.098 12.931 169.342 11.6944 169.83 10.5556C170.337 9.39909 171.032 8.38489 171.914 7.51303C172.815 6.64118 173.857 5.96504 175.039 5.48463C176.241 5.00422 177.536 4.76402 178.925 4.76402C180.314 4.76402 181.6 5.00422 182.783 5.48463C183.984 5.96504 185.035 6.64118 185.936 7.51303C186.837 8.38489 187.541 9.39909 188.048 10.5556C188.555 11.7122 188.808 12.9577 188.808 14.2922C188.808 15.6088 188.555 16.8454 188.048 18.002C187.541 19.1585 186.837 20.1727 185.936 21.0446C185.054 21.9164 184.012 22.6015 182.811 23.0997C181.628 23.5801 180.352 23.8203 178.981 23.8203ZM178.925 21.4182C180.333 21.4182 181.563 21.1158 182.614 20.5108C183.684 19.888 184.528 19.0429 185.148 17.9753C185.767 16.8899 186.077 15.6533 186.077 14.2655C186.077 13.2335 185.899 12.2904 185.542 11.4364C185.185 10.5645 184.688 9.80832 184.05 9.16778C183.412 8.52723 182.661 8.03792 181.797 7.69986C180.934 7.344 179.976 7.16607 178.925 7.16607C177.536 7.16607 176.307 7.46855 175.237 8.07351C174.185 8.67847 173.35 9.51474 172.731 10.5823C172.13 11.6499 171.83 12.8776 171.83 14.2655C171.83 15.2975 171.999 16.2583 172.336 17.1479C172.693 18.0198 173.181 18.776 173.801 19.4165C174.439 20.0393 175.19 20.5286 176.053 20.8844C176.935 21.2403 177.893 21.4182 178.925 21.4182Z" fill="white"/>
</svg>
