<svg width="69" height="69" viewBox="0 0 69 69" fill="none" xmlns="http://www.w3.org/2000/svg">
<path d="M3.37377 35.1999C2.7056 35.1999 2.11743 35.054 1.60925 34.7622C1.10106 34.4611 0.705807 34.047 0.423484 33.5199C0.14116 32.9835 0 32.3671 0 31.6706C0 30.833 0.207038 30.0989 0.621115 29.4684C1.0446 28.8378 1.64218 28.3531 2.41387 28.0143C3.19496 27.6755 4.10782 27.5061 5.15241 27.5061C5.63236 27.5061 6.02291 27.539 6.32406 27.6049V27.3085C6.32406 26.5932 6.19231 26.0614 5.92881 25.7132C5.66531 25.3556 5.26534 25.1768 4.72892 25.1768C3.86313 25.1768 3.30789 25.6332 3.06322 26.5461C2.98793 26.8096 2.83265 26.9226 2.59738 26.8849L0.677579 26.5461C0.536411 26.5179 0.437601 26.4567 0.381136 26.3626C0.334084 26.2685 0.329377 26.1414 0.367028 25.9814C0.611708 25.0215 1.12931 24.278 1.91981 23.751C2.71973 23.2145 3.72198 22.9463 4.92656 22.9463C6.357 22.9463 7.44395 23.3322 8.1874 24.1039C8.94028 24.8756 9.31669 26.0003 9.31669 27.4779V34.5788C9.31669 34.6823 9.27909 34.7716 9.20381 34.8469C9.13791 34.9128 9.05316 34.9457 8.94966 34.9457H7.11457C6.88871 34.9457 6.74755 34.8234 6.69109 34.5788L6.40876 33.2518H6.29583C6.04174 33.8729 5.66061 34.3528 5.15242 34.6916C4.65365 35.0305 4.06076 35.1999 3.37377 35.1999ZM3.07733 31.3318C3.07733 31.8306 3.20438 32.2306 3.45846 32.5317C3.72197 32.8235 4.07487 32.9694 4.51718 32.9694C5.10066 32.9694 5.54767 32.7105 5.85822 32.1929C6.16878 31.6659 6.32406 30.913 6.32406 29.9343V29.186C6.06055 29.1389 5.81117 29.1154 5.5759 29.1154C4.80421 29.1154 4.19251 29.3177 3.74079 29.7225C3.29848 30.1177 3.07733 30.6542 3.07733 31.3318ZM11.0671 23.5674C11.0671 23.4639 11.1001 23.3792 11.1659 23.3133C11.2412 23.238 11.3306 23.2004 11.4341 23.2004H13.2975C13.4009 23.2004 13.4857 23.2333 13.5515 23.2992C13.6269 23.3651 13.6739 23.4545 13.6927 23.5674L13.9751 24.9509H14.0879C14.3421 24.3015 14.7043 23.8074 15.175 23.4686C15.6549 23.1204 16.2195 22.9463 16.8688 22.9463C17.5653 22.9463 18.1628 23.1298 18.6616 23.4969C19.1698 23.8639 19.5604 24.3862 19.8333 25.0638H19.9462C20.3603 24.3486 20.8261 23.8168 21.3437 23.4686C21.8613 23.1204 22.44 22.9463 23.08 22.9463C23.7764 22.9463 24.3787 23.1345 24.8869 23.511C25.4045 23.8874 25.7997 24.4239 26.0726 25.1203C26.3455 25.8168 26.482 26.6402 26.482 27.5908V34.5788C26.482 34.6823 26.4443 34.7716 26.3691 34.8469C26.3032 34.9128 26.2185 34.9457 26.115 34.9457H23.8564C23.7529 34.9457 23.6635 34.9128 23.5882 34.8469C23.5223 34.7716 23.4894 34.6823 23.4894 34.5788V27.8166C23.4894 27.1296 23.3577 26.6026 23.0941 26.2356C22.8306 25.8685 22.4495 25.685 21.9507 25.685C21.4049 25.685 20.9861 25.9014 20.6943 26.3344C20.4121 26.7673 20.2709 27.3931 20.2709 28.2119V34.5788C20.2709 34.6823 20.2332 34.7716 20.1579 34.8469C20.0921 34.9128 20.0073 34.9457 19.9038 34.9457H17.6452C17.5417 34.9457 17.4523 34.9128 17.377 34.8469C17.3111 34.7716 17.2782 34.6823 17.2782 34.5788V27.8166C17.2782 27.1296 17.1465 26.6026 16.883 26.2356C16.6194 25.8685 16.2384 25.685 15.7396 25.685C15.1937 25.685 14.7749 25.9014 14.4832 26.3344C14.2009 26.7673 14.0597 27.3931 14.0597 28.2119V34.5788C14.0597 34.6823 14.0221 34.7716 13.9468 34.8469C13.8809 34.9128 13.7962 34.9457 13.6927 34.9457H11.4341C11.3306 34.9457 11.2412 34.9128 11.1659 34.8469C11.1001 34.7716 11.0671 34.6823 11.0671 34.5788V23.5674ZM27.95 31.6706C27.95 30.833 28.1571 30.0989 28.5712 29.4684C28.9947 28.8378 29.5922 28.3531 30.364 28.0143C31.145 27.6755 32.0579 27.5061 33.1025 27.5061C33.5825 27.5061 33.973 27.539 34.2742 27.6049V27.3085C34.2742 26.5932 34.1424 26.0614 33.8789 25.7132C33.6154 25.3556 33.2155 25.1768 32.679 25.1768C31.8132 25.1768 31.258 25.6332 31.0133 26.5461C30.938 26.8096 30.7828 26.9226 30.5475 26.8849L28.6277 26.5461C28.4865 26.5179 28.3877 26.4567 28.3312 26.3626C28.2842 26.2685 28.2795 26.1414 28.3171 25.9814C28.5618 25.0215 29.0793 24.278 29.8699 23.751C30.6698 23.2145 31.6721 22.9463 32.8766 22.9463C34.3071 22.9463 35.394 23.3322 36.1375 24.1039C36.8903 24.8756 37.2668 26.0003 37.2668 27.4779V34.5788C37.2668 34.6823 37.2291 34.7716 37.1538 34.8469C37.0879 34.9128 37.0033 34.9457 36.8998 34.9457H35.0646C34.8388 34.9457 34.6976 34.8234 34.6412 34.5788L34.3588 33.2518H34.2459C33.9918 33.8729 33.6107 34.3528 33.1025 34.6916C32.6037 35.0305 32.0109 35.1999 31.3239 35.1999C30.6369 35.1999 30.0675 35.054 29.5593 34.7622C29.0511 34.4611 28.6559 34.047 28.3736 33.5199C28.0912 32.9835 27.95 32.3671 27.95 31.6706ZM31.0274 31.3318C31.0274 31.8306 31.1545 32.2306 31.4085 32.5317C31.6721 32.8235 32.0249 32.9694 32.4672 32.9694C33.0507 32.9694 33.4977 32.7105 33.8083 32.1929C34.1188 31.6659 34.2742 30.913 34.2742 29.9343V29.186C34.0106 29.1389 33.7613 29.1154 33.526 29.1154C32.7543 29.1154 32.1426 29.3177 31.6909 29.7225C31.2486 30.1177 31.0274 30.6542 31.0274 31.3318ZM38.7914 32.8706C38.7914 32.6635 38.8478 32.4847 38.9608 32.3341L43.7885 25.5721H39.2713C39.1678 25.5721 39.0783 25.5391 39.003 25.4732C38.9372 25.3979 38.9042 25.3085 38.9042 25.205V23.5674C38.9042 23.4639 38.9372 23.3792 39.003 23.3133C39.0783 23.238 39.1678 23.2004 39.2713 23.2004H46.6964C46.8 23.2004 46.8846 23.238 46.9505 23.3133C47.0258 23.3792 47.0634 23.4639 47.0634 23.5674V25.2756C47.0634 25.4826 47.007 25.6615 46.894 25.812L42.518 31.8259C42.7815 31.7789 43.0497 31.7553 43.3226 31.7553C44.0002 31.7553 44.6213 31.8165 45.186 31.9388C45.76 32.0518 46.3529 32.24 46.9646 32.5035C47.1811 32.5976 47.2892 32.7576 47.2892 32.9835V34.607C47.2892 34.7575 47.2423 34.8611 47.1481 34.9175C47.054 34.9646 46.9364 34.9599 46.7952 34.9034C46.0894 34.6399 45.4636 34.4564 44.9178 34.3528C44.3813 34.2399 43.7931 34.1834 43.1532 34.1834C42.5133 34.1834 41.9016 34.2399 41.2899 34.3528C40.6876 34.4658 40.0195 34.6493 39.2854 34.9034C39.1442 34.9505 39.0266 34.9505 38.9325 34.9034C38.8384 34.8469 38.7914 34.7481 38.7914 34.607V32.8706ZM47.9104 29.073C47.9104 27.9249 48.1316 26.8849 48.5739 25.9532C49.0162 25.0121 49.6231 24.278 50.3949 23.751C51.176 23.2145 52.0417 22.9463 52.9922 22.9463C53.9427 22.9463 54.8179 23.2145 55.5896 23.751C56.3707 24.278 56.9824 25.0121 57.4247 25.9532C57.8764 26.8849 58.1023 27.9249 58.1023 29.073C58.1023 30.2212 57.8764 31.2659 57.4247 32.2071C56.9824 33.1388 56.3707 33.8729 55.5896 34.4093C54.8179 34.9363 53.9522 35.1999 52.9922 35.1999C52.0323 35.1999 51.176 34.9363 50.3949 34.4093C49.6231 33.8729 49.0162 33.1388 48.5739 32.2071C48.1316 31.2659 47.9104 30.2212 47.9104 29.073ZM51.0159 29.073C51.0159 30.2683 51.1854 31.1907 51.5242 31.84C51.863 32.48 52.3522 32.8 52.9922 32.8C53.6322 32.8 54.1263 32.48 54.4744 31.84C54.8226 31.1907 54.9967 30.2683 54.9967 29.073C54.9967 27.8778 54.8226 26.9602 54.4744 26.3203C54.1263 25.6709 53.6322 25.3462 52.9922 25.3462C52.3522 25.3462 51.863 25.6709 51.5242 26.3203C51.1854 26.9602 51.0159 27.8778 51.0159 29.073ZM59.6268 23.5674C59.6268 23.4639 59.6598 23.3792 59.7257 23.3133C59.801 23.238 59.8903 23.2004 59.9938 23.2004H61.8572C61.9607 23.2004 62.0454 23.2333 62.1113 23.2992C62.1866 23.3651 62.2337 23.4545 62.2524 23.5674L62.5348 24.9509H62.6477C62.9018 24.3109 63.2735 23.8168 63.7629 23.4686C64.2616 23.1204 64.8451 22.9463 65.5133 22.9463C66.2285 22.9463 66.8449 23.1345 67.3625 23.511C67.8895 23.8874 68.2942 24.4239 68.5765 25.1203C68.8588 25.8168 69 26.6402 69 27.5908V34.5788C69 34.6823 68.9623 34.7716 68.887 34.8469C68.8212 34.9128 68.7365 34.9457 68.633 34.9457H66.3744C66.2709 34.9457 66.1814 34.9128 66.1062 34.8469C66.0403 34.7716 66.0073 34.6823 66.0073 34.5788V27.8166C66.0073 27.1296 65.8662 26.6026 65.5839 26.2356C65.3015 25.8685 64.9016 25.685 64.384 25.685C63.81 25.685 63.3723 25.9014 63.0712 26.3344C62.77 26.7673 62.6194 27.3931 62.6194 28.2119V34.5788C62.6194 34.6823 62.5819 34.7716 62.5066 34.8469C62.4407 34.9128 62.356 34.9457 62.2524 34.9457H59.9938C59.8903 34.9457 59.801 34.9128 59.7257 34.8469C59.6598 34.7716 59.6268 34.6823 59.6268 34.5788V23.5674Z" fill="#171D27"/>
<path d="M7.84858 36.5675C7.66977 36.7086 7.63212 36.9439 7.73565 37.2733C7.82976 37.5651 8.05091 37.9274 8.39911 38.3603C9.80129 40.0921 11.4717 41.5319 13.4103 42.6801C15.349 43.8284 17.4241 44.6753 19.6356 45.2212C21.8566 45.7765 24.1245 46.0541 26.4396 46.0541C29.404 46.0541 32.2273 45.6212 34.9093 44.7553C37.5914 43.8989 39.8312 42.6942 41.6287 41.1414C42.2592 40.5861 42.5744 40.1438 42.5744 39.8144C42.5744 39.692 42.5227 39.5697 42.4192 39.4473C42.278 39.3062 42.1086 39.2591 41.911 39.3062C41.7133 39.3532 41.4358 39.4708 41.0781 39.6591C39.3559 40.5626 37.2574 41.2825 34.7823 41.819C32.3167 42.3648 29.7428 42.6378 27.0608 42.6378C23.7388 42.6378 20.5296 42.1861 17.4335 41.2825C14.3373 40.379 11.5941 38.9674 9.20373 37.0475C8.85555 36.7745 8.57318 36.6004 8.35676 36.5251C8.14972 36.4498 7.98033 36.4639 7.84858 36.5675Z" fill="#FF6201"/>
</svg>
