<svg width="50" height="15" viewBox="0 0 50 15" fill="none" xmlns="http://www.w3.org/2000/svg">
<path d="M4.01658 0.809473C5.78172 -0.0785934 7.88889 -0.234952 9.77619 0.335512C11.3862 0.793593 12.8154 1.79649 13.8525 3.10232C13.0597 3.83525 12.2938 4.59628 11.4961 5.32432C10.6618 4.41305 9.63937 3.5885 8.39461 3.35396C7.10588 3.084 5.673 3.37229 4.69942 4.29211C3.03445 5.70178 2.92817 8.46981 4.31586 10.103C5.27599 11.2036 6.84447 11.6617 8.26391 11.4186C9.59051 11.244 10.6264 10.3156 11.5218 9.39575C12.2852 10.191 13.0536 10.9813 13.8146 11.779C12.7116 12.8601 11.4851 13.9094 9.9753 14.3565C8.51432 14.7889 6.93364 14.817 5.44946 14.4872C3.44611 14.045 1.69074 12.6573 0.772139 10.8274C-0.0902756 9.05127 -0.217317 6.94654 0.326273 5.05802C0.866198 3.19027 2.28075 1.65112 4.01658 0.809473Z" fill="black"/>
<path d="M31.8521 0.239106C32.9966 0.231776 34.14 0.237884 35.2834 0.235441C37.145 4.99582 39.0873 9.72444 40.9502 14.4836C39.7164 14.4763 38.4839 14.4897 37.2513 14.4787C36.0481 11.4419 34.8119 8.41983 33.6013 5.3855C33.357 5.81182 33.2129 6.28456 33.0199 6.73409C31.9828 9.31767 30.9371 11.8964 29.9061 14.4824C28.6736 14.4836 27.441 14.4799 26.2097 14.4848C28.0286 9.86736 29.8854 5.26334 31.725 0.653211C31.7714 0.516398 31.8142 0.378362 31.8521 0.239106Z" fill="black"/>
<path d="M38.8479 3.63982C38.8333 2.505 38.843 1.36895 38.843 0.232912C42.5614 0.236576 46.2798 0.240241 49.9995 0.230469C49.9995 1.36651 50.0019 2.50255 49.997 3.63982C48.7107 3.63126 47.4244 3.63737 46.1381 3.63615C46.1137 7.22873 46.1442 10.8225 46.1235 14.4163C44.9874 14.4163 43.8514 14.4139 42.7166 14.4188C42.7105 10.825 42.7105 7.23239 42.7166 3.63859C41.4266 3.63371 40.1379 3.63126 38.8479 3.63982Z" fill="black"/>
<path d="M15.1253 0.220704C18.5225 0.22559 21.9196 0.229255 25.3167 0.219482C25.3497 1.29933 25.3265 2.3804 25.3326 3.46148C21.9233 3.46392 18.5127 3.4627 15.1033 3.4627C15.1119 2.38163 15.0777 1.30055 15.1253 0.220704Z" fill="black"/>
<path d="M15.0923 5.70058C18.5041 5.6786 21.9159 5.6957 25.3277 5.69326C25.3301 6.76455 25.3423 7.83708 25.3252 8.90838C21.9281 8.89494 18.5297 8.89127 15.1326 8.91082C15.063 7.84196 15.1289 6.77066 15.0923 5.70058Z" fill="black"/>
<path d="M15.1047 11.2622C18.514 11.2292 21.9246 11.2439 25.3339 11.2549C25.3205 12.3372 25.3608 13.4207 25.3107 14.503C21.9148 14.492 18.5189 14.4883 15.123 14.5042C15.0802 13.4244 15.1096 12.3433 15.1047 11.2622Z" fill="black"/>
</svg>
